# xmcd
#
# Track frame offsets:
# 150
# 9103
# 16827
# 29456
# 39594
# 56221
# 67534
# 77646
# 87159
# 101973
# 110536
# 121382
# 133372
# 146124
# 154964
# 163933
#
# Disc length: 2331 seconds
#
#
# Revision: 0
# Processed by: cddbd v1.5.2PL0 Copyright (c) Steve Scherf et al.
# Submitted via: FreeRIP 2.945 
#
DISCID=d6091910
DTITLE=Misc - Snow Country Christmas
DYEAR=1900
DGENRE=Country
TTITLE0=Oh Christmas Tree
TTITLE1=It Came upon a Midnight Clear
TTITLE2=Long Distance Christmas
TTITLE3=Jolly Old St.Nick
TTITLE4=Santa's Just a Good Ol'Boy
TTITLE5=Oh Come all Ye Faithful
TTITLE6=Rockin Around the Christmas Tree
TTITLE7=Auld Lang Syne
TTITLE8=Blue Christmas
TTITLE9=Joy to the World
TTITLE10=Angels We have Heard on High
TTITLE11=God Rest Ye MErry Gentleman
TTITLE12=Slient Night
TTITLE13=Old Toy Trains
TTITLE14=Hark the Herald Angels Sing
TTITLE15=Jingle Bells
EXTD=
EXTT0=
EXTT1=
EXTT2=
EXTT3=
EXTT4=
EXTT5=
EXTT6=
EXTT7=
EXTT8=
EXTT9=
EXTT10=
EXTT11=
EXTT12=
EXTT13=
EXTT14=
EXTT15=
PLAYORDER=
